<?xml version="1.0" encoding="iso-8859-1"?>
<!-- Uploaded to: SVG Repo, www.svgrepo.com, Generator: SVG Repo Mixer Tools -->
<svg height="800px" width="800px" version="1.1" id="Layer_1" xmlns="http://www.w3.org/2000/svg" xmlns:xlink="http://www.w3.org/1999/xlink" 
	 viewBox="0 0 512.001 512.001" xml:space="preserve">
<path style="fill:#5A482E;" d="M501.684,469.179L388.31,355.396l-33.325,33.465l113.368,113.776c2.028,2.035,5.347,2.035,7.375,0
	l25.956-26.056C503.712,474.546,503.712,471.215,501.684,469.179z"/>
<path style="opacity:0.1;enable-background:new    ;" d="M369.379,374.406l-14.393,14.454l113.368,113.777
	c2.028,2.035,5.347,2.035,7.375,0l10.71-10.751L369.379,374.406z"/>
<path style="fill:#355468;" d="M372.615,326.262c-6.335,8.878-13.461,17.365-21.408,25.341c-7.951,7.98-16.409,15.135-25.26,21.496
	l18.689,18.75c2.028,2.034,5.348,2.034,7.375-0.002l39.282-39.446c2.028-2.037,2.027-5.368-0.002-7.402L372.615,326.262z"/>
<path style="opacity:0.1;enable-background:new    ;" d="M325.946,373.099l18.689,18.75c2.028,2.034,5.348,2.034,7.375-0.002
	l16.483-16.712l-20.41-20.476C341.052,361.421,333.649,367.564,325.946,373.099z"/>
<path style="fill:#8AA5B6;" d="M351.207,66.818c78.354,78.642,78.354,206.144,0,284.785c-78.354,78.643-205.389,78.643-283.744,0
	c-78.354-78.641-78.354-206.143,0-284.785S272.853-11.823,351.207,66.818z"/>
<path style="opacity:0.1;enable-background:new    ;" d="M89.02,351.603c-78.354-78.641-78.354-206.143,0-284.785
	c36.434-36.568,83.396-56.121,131.094-58.681c-54.878-2.946-110.731,16.609-152.65,58.681c-78.354,78.642-78.354,206.144,0,284.785
	c41.919,42.074,97.772,61.627,152.65,58.682C172.416,407.726,125.455,388.172,89.02,351.603z"/>
<path style="fill:#B9F5ED;" d="M327.024,327.332c-64.893,65.133-170.483,65.133-235.378,0c-64.894-65.133-64.894-171.11,0-236.243
	s170.484-65.133,235.378,0S391.918,262.2,327.024,327.332z"/>
<path style="fill:#FFC753;" d="M326.674,102.401c-2.766,0-5.18-1.838-5.915-4.487c-5.828-21.052-9.558-24.766-30.672-30.578
	c-2.659-0.735-4.508-3.143-4.508-5.892c0-2.751,1.847-5.161,4.508-5.894c21.115-5.811,24.843-9.524,30.672-30.576
	c0.736-2.653,3.149-4.486,5.915-4.486c2.759,0,5.177,1.833,5.913,4.486c5.831,21.052,9.553,24.765,30.675,30.576
	c2.658,0.732,4.495,3.143,4.495,5.894c0,2.749-1.837,5.158-4.495,5.892c-21.123,5.812-24.846,9.525-30.675,30.578
	C331.85,100.563,329.432,102.401,326.674,102.401z"/>
<path style="fill:#A87B2C;" d="M209.567,331.832c-3.561,0-6.939-1.606-9.208-4.379L91.297,194.172
	c-3.343-4.085-3.652-9.893-0.763-14.315l38.923-59.588c2.208-3.381,5.957-5.418,9.968-5.418h140.281
	c4.013,0,7.759,2.036,9.971,5.418l38.919,59.588c2.89,4.422,2.581,10.231-0.762,14.315L218.774,327.453
	C216.505,330.226,213.128,331.832,209.567,331.832z"/>
<g>
	<path style="fill:#F9D984;" d="M129.46,120.268l-38.926,59.589c-1.473,2.256-2.111,4.874-1.94,7.442h73.582l9.14-13.992
		l-37.313-57.123C132.191,117.115,130.614,118.501,129.46,120.268z"/>
	<path style="fill:#F9D984;" d="M328.598,179.857l-38.924-59.589c-1.154-1.767-2.729-3.152-4.543-4.084l-37.313,57.121l9.141,13.994
		h73.583C330.71,184.731,330.075,182.113,328.598,179.857z"/>
</g>
<polygon style="fill:#E3DAB3;" points="209.498,114.851 162.176,187.299 256.958,187.299 209.635,114.851 "/>
<path style="opacity:0.1;enable-background:new    ;" d="M123.101,194.172c-3.343-4.085-3.652-9.893-0.764-14.315l38.923-59.588
	c2.209-3.381,5.957-5.418,9.969-5.418h-31.803c-4.011,0-7.76,2.036-9.968,5.418l-38.923,59.588
	c-2.889,4.422-2.58,10.231,0.763,14.315l109.062,133.281c2.267,2.773,5.647,4.379,9.208,4.379c3.562,0,6.938-1.606,9.208-4.379
	l6.695-8.182L123.101,194.172z"/>
<polygon style="fill:#EFBA50;" points="209.567,331.857 256.958,187.299 162.468,187.299 "/>
<path style="opacity:0.1;enable-background:new    ;" d="M124.459,327.332c-64.894-65.133-64.894-171.11,0-236.243
	c28.278-28.383,64.284-44.391,101.283-48.038C177.835,38.33,128.262,54.34,91.645,91.09c-64.894,65.133-64.894,171.11,0,236.243
	c36.616,36.75,86.188,52.76,134.097,48.038C188.743,371.724,152.737,355.714,124.459,327.332z"/>
<path style="fill:#FFFFFF;" d="M290.761,159.045c-1.877,0-3.515-1.247-4.014-3.046c-3.957-14.289-6.487-16.81-20.82-20.755
	c-1.805-0.498-3.059-2.133-3.059-3.999c0-1.867,1.254-3.504,3.059-4c14.333-3.943,16.864-6.466,20.82-20.754
	c0.499-1.801,2.138-3.045,4.014-3.045c1.872,0,3.514,1.243,4.013,3.045c3.958,14.289,6.485,16.81,20.822,20.754
	c1.805,0.497,3.051,2.133,3.051,4c0,1.866-1.247,3.501-3.051,3.999c-14.337,3.944-16.865,6.466-20.822,20.755
	C294.275,157.798,292.633,159.045,290.761,159.045z"/>
<path d="M507.236,463.647l-54.161-54.357c-3.057-3.067-8.017-3.074-11.083-0.02c-3.066,3.055-3.074,8.016-0.02,11.083l52.338,52.526
	l-22.27,22.355L366.045,388.859L388.31,366.5l37.004,37.138c3.054,3.067,8.016,3.073,11.083,0.02
	c3.066-3.055,3.074-8.016,0.02-11.083l-37.408-37.543c2.744-4.966,2.028-11.357-2.168-15.566l-14.043-14.088
	c17.768-26.587,29.128-56.863,33.291-89.277c0.552-4.292-2.482-8.22-6.774-8.772c-4.305-0.548-8.22,2.483-8.772,6.774
	c-5.487,42.717-24.467,81.435-54.888,111.968c-36.415,36.548-84.827,56.676-136.32,56.676s-99.906-20.128-136.32-56.676
	c-75.191-75.466-75.191-198.256,0-273.723c36.416-36.546,84.828-56.674,136.321-56.674c34.082,0,66.809,8.828,95.606,25.389
	c-3.351,2.935-8.307,4.559-16.937,6.934c-1.905,0.525-3.627,1.435-5.094,2.629c-22.734-10.616-47.714-16.222-73.575-16.222
	c-46.607,0-90.374,18.168-123.241,51.155c-67.934,68.182-67.934,179.122,0,247.305c32.867,32.987,76.635,51.155,123.241,51.155
	s90.373-18.168,123.24-51.155c64.81-65.049,67.783-169.012,8.932-237.638c2.724-9.079,4.921-13.005,10.73-15.907
	c31.936,35.329,49.594,80.644,49.895,128.665c0.027,4.311,3.531,7.788,7.836,7.788c0.017,0,0.033,0,0.05,0
	c4.328-0.027,7.815-3.558,7.788-7.886c-0.311-49.696-17.826-96.711-49.616-134.142c4.47-2.388,7.404-7.09,7.404-12.301
	c0-6.255-4.214-11.785-10.254-13.45c-18.46-5.077-20.108-6.721-25.203-25.113c-1.67-6.023-7.207-10.228-13.465-10.228
	c-6.259,0-11.797,4.206-13.468,10.232c-0.416,1.502-0.807,2.881-1.188,4.17C281.048,9.407,245.916,0,209.335,0
	C153.644,0,101.289,21.766,61.912,61.287c-81.268,81.566-81.268,214.283,0,295.848c39.377,39.522,91.732,61.287,147.423,61.287
	c41.815,0,81.748-12.272,115.72-35.116l14.031,14.076c2.462,2.469,5.742,3.83,9.236,3.83c2.24,0,4.39-0.564,6.293-1.616
	l108.186,108.574c2.463,2.471,5.743,3.832,9.238,3.832s6.776-1.36,9.24-3.833l25.956-26.054
	C512.309,477.022,512.308,468.739,507.236,463.647z M321.472,321.801c-29.905,30.015-69.728,46.544-112.137,46.544
	c-42.408,0-82.233-16.529-112.138-46.544c-61.856-62.082-61.856-163.098,0-225.18c29.905-30.015,69.729-46.544,112.138-46.544
	c24.367,0,47.874,5.469,69.142,15.808c1.458,4.298,4.973,7.749,9.529,9.007c5.738,1.579,9.849,2.826,12.946,4.348
	c1.832,1.306,3.639,2.652,5.422,4.041c2.867,3.337,4.486,8.253,6.833,16.731c1.673,6.022,7.21,10.226,13.467,10.226
	c2.068,0,4.053-0.468,5.851-1.302C383.068,171.412,379.39,263.671,321.472,321.801z M326.673,32.643
	c5.467,17.375,11.444,23.354,28.821,28.802c-17.379,5.449-23.355,11.431-28.821,28.804c-5.466-17.372-11.444-23.354-28.82-28.804
	C315.229,55.995,321.208,50.012,326.673,32.643z M348.322,384.446l-10.454-10.489c6.574-5.187,12.886-10.796,18.891-16.824
	c5.992-6.014,11.568-12.326,16.726-18.899l10.432,10.467L348.322,384.446z"/>
<path d="M317.68,142.798c5.183-1.43,8.802-6.181,8.802-11.553c0-5.376-3.622-10.127-8.81-11.557
	c-11.692-3.216-12.123-3.645-15.348-15.29c-1.434-5.175-6.189-8.79-11.565-8.79s-10.131,3.613-11.567,8.791
	c-0.262,0.946-0.504,1.81-0.737,2.614h-139.03c-6.683,0-12.863,3.353-16.529,8.968L83.974,175.57
	c-4.786,7.327-4.279,16.796,1.259,23.563l109.06,133.28c3.77,4.611,9.337,7.255,15.274,7.255c5.935,0,11.501-2.644,15.272-7.253
	l61.815-75.541c2.742-3.35,2.248-8.287-1.102-11.028c-3.349-2.74-8.287-2.248-11.028,1.102l-48.174,58.869l36.286-110.684h54.286
	l-26.555,32.452c-2.741,3.35-2.248,8.287,1.102,11.028c3.349,2.742,8.287,2.249,11.028-1.102l31.404-38.378
	c5.539-6.769,6.045-16.24,1.259-23.563l-20.794-31.838C315.36,143.441,316.455,143.135,317.68,142.798z M290.76,118.806
	c2.789,6.075,6.366,9.654,12.438,12.438c-6.074,2.785-9.65,6.363-12.438,12.438c-2.788-6.075-6.366-9.654-12.438-12.439
	C284.395,128.458,287.972,124.881,290.76,118.806z M195.018,122.687l-23.703,36.288l-23.705-36.288H195.018z M133.064,129.078
	l28.89,44.227l-4.022,6.157h-57.78L133.064,129.078z M102.211,195.135h54.569l36.1,110.803L102.211,195.135z M209.59,306.63
	l-36.326-111.496h26.065c4.328,0,7.837-3.509,7.837-7.837s-3.509-7.837-7.837-7.837h-22.673l32.911-50.385l32.912,50.385h-15.636
	c-4.328,0-7.837,3.509-7.837,7.837s3.509,7.837,7.837,7.837h19.299L209.59,306.63z M224.114,122.687h34.534
	c-2.251,2.205-3.617,5.262-3.617,8.557c0,3.792,1.811,7.268,4.7,9.493l-11.913,18.238L224.114,122.687z M318.979,179.462h-57.78
	l-4.023-6.158l17.194-26.321c2.199,1.957,3.125,4.979,4.823,11.111c1.437,5.173,6.192,8.787,11.566,8.787
	c5.374,0,10.129-3.613,11.566-8.791c0.29-1.049,0.558-2.004,0.813-2.882L318.979,179.462z"/>
</svg>