<?xml version="1.0" encoding="UTF-8"?>
<svg version="1.1" xmlns="http://www.w3.org/2000/svg" width="300" height="300">
<path d="M0 0 C0.9993306 -0.00335861 1.99866119 -0.00671722 3.02827454 -0.01017761 C6.31858579 -0.01964486 9.60884591 -0.0216286 12.89916992 -0.02270508 C15.19691488 -0.02592059 17.49465964 -0.02928489 19.79240417 -0.03279114 C24.60477167 -0.03877184 29.41712124 -0.04063212 34.22949219 -0.04003906 C40.37929628 -0.0399375 46.52898477 -0.0535883 52.67876148 -0.07081127 C57.4238487 -0.08195963 62.16890822 -0.0839574 66.91400719 -0.08342934 C69.18048183 -0.08460523 71.44695729 -0.08900494 73.71341896 -0.0967617 C76.89105834 -0.10661885 80.06844992 -0.10366097 83.24609375 -0.09765625 C84.17162048 -0.10327576 85.09714722 -0.10889526 86.05072021 -0.11468506 C94.75767925 -0.07312237 103.12668505 0.50488826 110.05541992 6.23901367 C114.15224087 10.67193745 116.6123922 15.77020455 117.12963867 21.77026367 C116.97495117 22.94588867 116.97495117 22.94588867 116.81713867 24.14526367 C117.65245117 24.27481445 117.65245117 24.27481445 118.50463867 24.40698242 C125.85241873 25.7598676 131.42853677 28.19094026 136.19213867 34.08276367 C139.97793213 41.21752827 140.04883565 47.190334 139.81713867 55.14526367 C140.80713867 55.06276367 141.79713867 54.98026367 142.81713867 54.89526367 C148.27301352 54.92832958 152.62413811 57.102336 156.58666992 60.79370117 C160.7947402 65.4829863 163.05940096 69.75211401 163.08456421 76.17243958 C163.09735916 77.65471291 163.09735916 77.65471291 163.1104126 79.16693115 C163.10905304 80.77619476 163.10905304 80.77619476 163.10766602 82.41796875 C163.11438324 83.55676987 163.12110046 84.69557098 163.12802124 85.86888123 C163.14702168 89.63423016 163.15092656 93.39940103 163.15307617 97.16479492 C163.15950284 99.78407362 163.16623111 102.4033516 163.17324829 105.02262878 C163.18602903 110.51444659 163.18901427 116.0062162 163.18774414 121.49804688 C163.18654356 127.83231769 163.20763183 134.16624731 163.23923147 140.50043184 C163.26860812 146.60814036 163.27571826 152.71568606 163.27452469 158.82346153 C163.27688265 161.4153654 163.2857171 164.00727187 163.30118942 166.59913063 C163.32082216 170.22783189 163.31502084 173.85565916 163.30297852 177.484375 C163.31421753 178.55114471 163.32545654 179.61791443 163.33703613 180.7170105 C163.27857571 187.66232609 162.29725077 193.39097616 157.44061852 198.6302309 C150.44981335 204.8235227 144.40879931 205.58978489 135.44677734 205.56518555 C134.30943649 205.57365509 133.17209564 205.58212463 132.00028992 205.59085083 C128.24511492 205.61422578 124.49034964 205.61524272 120.73510742 205.61401367 C118.11965267 205.62111558 115.50419948 205.62881463 112.88874817 205.63708496 C107.40708091 205.65167635 101.92552741 205.65227956 96.44384766 205.64624023 C90.12482097 205.63960588 83.80637896 205.66244416 77.48747081 205.69955397 C71.38987916 205.73405323 65.29256195 205.74057952 59.19487953 205.73646545 C56.60938083 205.73815597 54.02387437 205.7477918 51.43843651 205.76560974 C47.81705159 205.78781824 44.19706496 205.77808524 40.57568359 205.76049805 C39.5140802 205.77376129 38.45247681 205.78702454 37.35870361 205.8006897 C30.39505791 205.72236702 25.46038384 204.31617388 19.81713867 200.14526367 C17.66088867 197.75854492 17.66088867 197.75854492 16.31713867 195.45776367 C15.62104492 194.30727539 15.62104492 194.30727539 14.91088867 193.13354492 C12.73278601 189.17406545 12.71301994 186.59832411 12.75463867 182.02026367 C12.76366211 180.73893555 12.77268555 179.45760742 12.78198242 178.13745117 C12.79358398 177.1500293 12.80518555 176.16260742 12.81713867 175.14526367 C12.24866211 175.11948242 11.68018555 175.09370117 11.09448242 175.06713867 C3.4825779 174.50800044 -1.31965849 172.42103102 -6.49536133 166.77026367 C-10.42900451 161.85058727 -11.48146784 157.41600036 -11.18286133 151.14526367 C-11.76293945 151.11948242 -12.34301758 151.09370117 -12.94067383 151.06713867 C-18.42834365 150.668694 -21.90009385 149.85699549 -26.18286133 146.14526367 C-30.53261827 141.08075794 -33.29595016 137.19354046 -33.33003235 130.3585968 C-33.33718765 129.37316391 -33.34434296 128.38773102 -33.35171509 127.37243652 C-33.35440399 126.29240356 -33.3570929 125.21237061 -33.35986328 124.09960938 C-33.36643448 122.96110031 -33.37300568 121.82259125 -33.379776 120.64958191 C-33.39952247 116.87340227 -33.41117502 113.09726244 -33.42114258 109.32104492 C-33.42521811 108.03193899 -33.42929363 106.74283306 -33.43349266 105.41466331 C-33.45220755 99.29468385 -33.46677138 93.17472433 -33.47510463 87.05472213 C-33.48486765 80.00193718 -33.51116364 72.94946686 -33.55160552 65.89679271 C-33.58547346 59.77949506 -33.59725538 53.66232905 -33.60130882 47.54494286 C-33.60617905 44.94744929 -33.61780532 42.34995919 -33.63634682 39.75252724 C-33.66070389 36.11406082 -33.65977879 32.47641369 -33.65283203 28.83789062 C-33.66564209 27.76797882 -33.67845215 26.69806702 -33.69165039 25.59573364 C-33.64016722 18.18495698 -32.41353039 12.88908152 -27.43676758 7.12182617 C-18.88944162 0.29186132 -10.59841048 -0.0051557 0 0 Z " fill="#FE6D4C" transform="translate(85.182861328125,46.854736328125)"/>
<path d="M0 0 C0.9993306 -0.00335861 1.99866119 -0.00671722 3.02827454 -0.01017761 C6.31858579 -0.01964486 9.60884591 -0.0216286 12.89916992 -0.02270508 C15.19691488 -0.02592059 17.49465964 -0.02928489 19.79240417 -0.03279114 C24.60477167 -0.03877184 29.41712124 -0.04063212 34.22949219 -0.04003906 C40.37929628 -0.0399375 46.52898477 -0.0535883 52.67876148 -0.07081127 C57.4238487 -0.08195963 62.16890822 -0.0839574 66.91400719 -0.08342934 C69.18048183 -0.08460523 71.44695729 -0.08900494 73.71341896 -0.0967617 C76.89105834 -0.10661885 80.06844992 -0.10366097 83.24609375 -0.09765625 C84.17162048 -0.10327576 85.09714722 -0.10889526 86.05072021 -0.11468506 C94.75767925 -0.07312237 103.12668505 0.50488826 110.05541992 6.23901367 C114.15224087 10.67193745 116.6123922 15.77020455 117.12963867 21.77026367 C116.97495117 22.94588867 116.97495117 22.94588867 116.81713867 24.14526367 C117.65245117 24.27481445 117.65245117 24.27481445 118.50463867 24.40698242 C125.85241873 25.7598676 131.42853677 28.19094026 136.19213867 34.08276367 C139.01921422 39.41071374 139.91279625 43.33155318 139.86401367 49.35620117 C139.85724609 50.43949707 139.85047852 51.52279297 139.84350586 52.63891602 C139.8304541 53.87955811 139.8304541 53.87955811 139.81713867 55.14526367 C138.99467824 55.14746351 138.99467824 55.14746351 138.15560246 55.14970779 C124.78328012 55.18684013 111.41121307 55.24618981 98.03909397 55.32916641 C91.57227647 55.36862884 85.1055949 55.40082363 78.63867188 55.41625977 C72.39449802 55.43143409 66.15069789 55.46589445 59.9066906 55.51357269 C57.52778311 55.5283783 55.14882226 55.53630421 52.76986885 55.53714752 C49.43048664 55.53952128 46.09213376 55.56663591 42.75292969 55.59936523 C41.77540741 55.59433487 40.79788513 55.5893045 39.79074097 55.5841217 C32.06977103 55.70074349 26.01798304 57.51345831 20.00463867 62.45776367 C14.49499625 69.22675293 13.22520875 73.81201456 13.27124023 82.39501953 C13.26090256 83.40065948 13.25056488 84.40629944 13.23991394 85.44241333 C13.21054374 88.74847593 13.20898795 92.05392476 13.20776367 95.36010742 C13.19277818 97.65940006 13.17605026 99.95868195 13.15765381 102.25794983 C13.1140099 108.29623923 13.09398756 114.33438342 13.07891846 120.37280273 C13.05933688 126.53988215 13.01736796 132.70680501 12.97729492 138.8737793 C12.90202467 150.96422576 12.85171375 163.05463713 12.81713867 175.14526367 C11.39326555 175.02013371 9.97023076 174.88544442 8.54760742 174.74682617 C7.75507568 174.67286621 6.96254395 174.59890625 6.14599609 174.52270508 C-0.02476053 173.52260132 -4.16093636 169.68985116 -7.96020508 164.93823242 C-10.97518687 160.5169013 -11.43251239 156.38793587 -11.18286133 151.14526367 C-11.76293945 151.11948242 -12.34301758 151.09370117 -12.94067383 151.06713867 C-18.42834365 150.668694 -21.90009385 149.85699549 -26.18286133 146.14526367 C-30.53261827 141.08075794 -33.29595016 137.19354046 -33.33003235 130.3585968 C-33.33718765 129.37316391 -33.34434296 128.38773102 -33.35171509 127.37243652 C-33.35440399 126.29240356 -33.3570929 125.21237061 -33.35986328 124.09960938 C-33.36643448 122.96110031 -33.37300568 121.82259125 -33.379776 120.64958191 C-33.39952247 116.87340227 -33.41117502 113.09726244 -33.42114258 109.32104492 C-33.42521811 108.03193899 -33.42929363 106.74283306 -33.43349266 105.41466331 C-33.45220755 99.29468385 -33.46677138 93.17472433 -33.47510463 87.05472213 C-33.48486765 80.00193718 -33.51116364 72.94946686 -33.55160552 65.89679271 C-33.58547346 59.77949506 -33.59725538 53.66232905 -33.60130882 47.54494286 C-33.60617905 44.94744929 -33.61780532 42.34995919 -33.63634682 39.75252724 C-33.66070389 36.11406082 -33.65977879 32.47641369 -33.65283203 28.83789062 C-33.66564209 27.76797882 -33.67845215 26.69806702 -33.69165039 25.59573364 C-33.64016722 18.18495698 -32.41353039 12.88908152 -27.43676758 7.12182617 C-18.88944162 0.29186132 -10.59841048 -0.0051557 0 0 Z " fill="#FDBD59" transform="translate(85.182861328125,46.854736328125)"/>
<path d="M0 0 C0.9993306 -0.00335861 1.99866119 -0.00671722 3.02827454 -0.01017761 C6.31858579 -0.01964486 9.60884591 -0.0216286 12.89916992 -0.02270508 C15.19691488 -0.02592059 17.49465964 -0.02928489 19.79240417 -0.03279114 C24.60477167 -0.03877184 29.41712124 -0.04063212 34.22949219 -0.04003906 C40.37929628 -0.0399375 46.52898477 -0.0535883 52.67876148 -0.07081127 C57.4238487 -0.08195963 62.16890822 -0.0839574 66.91400719 -0.08342934 C69.18048183 -0.08460523 71.44695729 -0.08900494 73.71341896 -0.0967617 C76.89105834 -0.10661885 80.06844992 -0.10366097 83.24609375 -0.09765625 C84.17162048 -0.10327576 85.09714722 -0.10889526 86.05072021 -0.11468506 C94.75767925 -0.07312237 103.12668505 0.50488826 110.05541992 6.23901367 C114.15224087 10.67193745 116.6123922 15.77020455 117.12963867 21.77026367 C116.97495117 22.94588867 116.97495117 22.94588867 116.81713867 24.14526367 C117.80713867 24.47526367 118.79713867 24.80526367 119.81713867 25.14526367 C119.22999022 25.14673023 118.64284176 25.14819679 118.03790092 25.14970779 C103.74032975 25.18678623 89.44297323 25.24581458 75.14559746 25.32916641 C68.23141982 25.36894781 61.31735585 25.40134477 54.40307617 25.41625977 C47.73098013 25.4306732 41.05928716 25.46579442 34.38733292 25.51357269 C31.84126979 25.52841538 29.29515639 25.53630633 26.74905014 25.53714752 C23.18396144 25.53951011 19.61985184 25.56653514 16.05493164 25.59936523 C15.00116837 25.59433487 13.94740509 25.5893045 12.86170959 25.5841217 C6.79534136 25.67060837 3.54365377 26.30987097 -1.18286133 30.14526367 C-1.84286133 30.14526367 -2.50286133 30.14526367 -3.18286133 30.14526367 C-3.18286133 30.80526367 -3.18286133 31.46526367 -3.18286133 32.14526367 C-3.61598633 32.55776367 -4.04911133 32.97026367 -4.49536133 33.39526367 C-9.73347581 38.8273824 -9.61000263 44.64580997 -9.55517578 51.73364258 C-9.55882645 52.78813599 -9.56247711 53.84262939 -9.5662384 54.92907715 C-9.57433387 58.41015813 -9.56073613 61.89077195 -9.54614258 65.37182617 C-9.54562362 67.80073038 -9.5461427 70.22963502 -9.5476532 72.65853882 C-9.5475635 77.75101997 -9.53714382 82.84334274 -9.51904297 87.93579102 C-9.49642869 94.43856313 -9.49579903 100.94110242 -9.50256062 107.44390297 C-9.50591647 112.46273843 -9.49923894 117.48152162 -9.48943138 122.50034714 C-9.48560147 124.89634298 -9.48442193 127.29234467 -9.48601723 129.68834305 C-9.48639153 133.05251196 -9.47366385 136.41639236 -9.45751953 139.78051758 C-9.45999695 140.75652924 -9.46247437 141.73254089 -9.46502686 142.73812866 C-9.41221094 149.69631603 -8.49573035 156.31629158 -7.18286133 163.14526367 C-6.19286133 163.14526367 -5.20286133 163.14526367 -4.18286133 163.14526367 C-4.18286133 164.46526367 -4.18286133 165.78526367 -4.18286133 167.14526367 C-2.86286133 167.14526367 -1.54286133 167.14526367 -0.18286133 167.14526367 C-0.18286133 168.46526367 -0.18286133 169.78526367 -0.18286133 171.14526367 C-4.2970186 169.62150172 -6.78701382 166.70093842 -9.18286133 163.14526367 C-10.99065092 159.01317318 -11.39668255 155.63550937 -11.18286133 151.14526367 C-11.76293945 151.11948242 -12.34301758 151.09370117 -12.94067383 151.06713867 C-18.42834365 150.668694 -21.90009385 149.85699549 -26.18286133 146.14526367 C-30.53261827 141.08075794 -33.29595016 137.19354046 -33.33003235 130.3585968 C-33.33718765 129.37316391 -33.34434296 128.38773102 -33.35171509 127.37243652 C-33.35440399 126.29240356 -33.3570929 125.21237061 -33.35986328 124.09960938 C-33.36643448 122.96110031 -33.37300568 121.82259125 -33.379776 120.64958191 C-33.39952247 116.87340227 -33.41117502 113.09726244 -33.42114258 109.32104492 C-33.42521811 108.03193899 -33.42929363 106.74283306 -33.43349266 105.41466331 C-33.45220755 99.29468385 -33.46677138 93.17472433 -33.47510463 87.05472213 C-33.48486765 80.00193718 -33.51116364 72.94946686 -33.55160552 65.89679271 C-33.58547346 59.77949506 -33.59725538 53.66232905 -33.60130882 47.54494286 C-33.60617905 44.94744929 -33.61780532 42.34995919 -33.63634682 39.75252724 C-33.66070389 36.11406082 -33.65977879 32.47641369 -33.65283203 28.83789062 C-33.66564209 27.76797882 -33.67845215 26.69806702 -33.69165039 25.59573364 C-33.64016722 18.18495698 -32.41353039 12.88908152 -27.43676758 7.12182617 C-18.88944162 0.29186132 -10.59841048 -0.0051557 0 0 Z " fill="#FEDE5A" transform="translate(85.182861328125,46.854736328125)"/>
<path d="M0 0 C0.9993306 -0.00335861 1.99866119 -0.00671722 3.02827454 -0.01017761 C6.31858579 -0.01964486 9.60884591 -0.0216286 12.89916992 -0.02270508 C15.19691488 -0.02592059 17.49465964 -0.02928489 19.79240417 -0.03279114 C24.60477167 -0.03877184 29.41712124 -0.04063212 34.22949219 -0.04003906 C40.37929628 -0.0399375 46.52898477 -0.0535883 52.67876148 -0.07081127 C57.4238487 -0.08195963 62.16890822 -0.0839574 66.91400719 -0.08342934 C69.18048183 -0.08460523 71.44695729 -0.08900494 73.71341896 -0.0967617 C76.89105834 -0.10661885 80.06844992 -0.10366097 83.24609375 -0.09765625 C84.17162048 -0.10327576 85.09714722 -0.10889526 86.05072021 -0.11468506 C93.65549185 -0.07838366 102.29284586 0.11018739 108.44213867 5.08276367 C109.0944043 5.58678711 109.74666992 6.09081055 110.41870117 6.61010742 C111.81713867 8.14526367 111.81713867 8.14526367 111.81713867 11.14526367 C111.04370117 10.21713867 111.04370117 10.21713867 110.25463867 9.27026367 C107.26018875 6.65971759 104.63176534 6.11625955 100.81713867 5.14526367 C99.82713867 4.48526367 98.83713867 3.82526367 97.81713867 3.14526367 C95.70212605 2.84239279 95.70212605 2.84239279 93.34091187 2.88456726 C92.42423737 2.87748245 91.50756287 2.87039764 90.56311035 2.86309814 C89.55945435 2.86557556 88.55579834 2.86805298 87.52172852 2.87060547 C85.93341721 2.86293907 85.93341721 2.86293907 84.3130188 2.8551178 C80.80131422 2.84118271 77.28980517 2.84218223 73.77807617 2.84448242 C71.3376966 2.84059623 68.89731771 2.83626172 66.4569397 2.83149719 C61.33398246 2.82402552 56.21109412 2.8243321 51.08813477 2.82958984 C44.53449349 2.8353705 37.98113611 2.81849182 31.42754173 2.79524517 C26.38309082 2.78048164 21.33870774 2.77963998 16.29423904 2.7827549 C13.87900864 2.7822425 11.46377435 2.77702019 9.04856491 2.76694298 C5.66183062 2.75455239 2.27564213 2.76138765 -1.11108398 2.77294922 C-2.1025946 2.76530548 -3.09410522 2.75766174 -4.11566162 2.74978638 C-9.6174334 2.79112252 -14.1517808 3.46855857 -19.30428123 5.43496418 C-21.55730807 6.28684365 -23.80816589 6.76224828 -26.18286133 7.14526367 C-19.21372034 -0.59822631 -9.73111133 -0.0047338 0 0 Z " fill="#F9EBB3" transform="translate(85.182861328125,46.854736328125)"/>
<path d="M0 0 C6.90036815 0.55202945 11.19978402 2.77526667 15.75 7.9375 C18.92946427 12.26510415 20.24927388 15.69759297 20.25396729 21.06082153 C20.25960693 22.05622955 20.26524658 23.05163757 20.27105713 24.07720947 C20.26700867 25.1579071 20.26296021 26.23860474 20.25878906 27.35205078 C20.2622937 28.49888336 20.26579834 29.64571594 20.26940918 30.82730103 C20.27820937 34.61669981 20.27238402 38.40591183 20.265625 42.1953125 C20.26697195 44.82656897 20.26891274 47.45782519 20.27142334 50.08908081 C20.27505845 55.60188828 20.27027478 61.11464209 20.26074219 66.62744141 C20.24984768 73.00147546 20.25339221 79.37538167 20.264395 85.74941266 C20.27456023 91.8838204 20.27349025 98.01817142 20.26763153 104.15258408 C20.26629479 106.76256198 20.26794361 109.37254313 20.27259064 111.98251724 C20.27765208 115.62401312 20.26995127 119.26526095 20.25878906 122.90673828 C20.26283752 123.99148437 20.26688599 125.07623047 20.27105713 126.19384766 C20.26541748 127.18361603 20.25977783 128.1733844 20.25396729 129.19314575 C20.25321323 130.05405886 20.25245918 130.91497196 20.25168228 131.80197334 C20 134 20 134 18 137 C18 97.4 18 57.8 18 17 C17.01 16.67 16.02 16.34 15 16 C13.04457812 13.01540871 13 11.73585209 13 8 C11.35 8 9.7 8 8 8 C7.67 6.35 7.34 4.7 7 3 C4.69 2.67 2.38 2.34 0 2 C0 1.34 0 0.68 0 0 Z " fill="#E67A64" transform="translate(228,102)"/>
<path d="M0 0 C0.99 1.485 0.99 1.485 2 3 C1.00051174 7.74756923 -2.09471873 10.41316839 -6 13 C-11.66713582 16.65320391 -16.85198245 16.4378138 -23.37036133 16.41992188 C-25.0763726 16.43262619 -25.0763726 16.43262619 -26.81684875 16.44558716 C-30.57202375 16.46896211 -34.32678904 16.46997905 -38.08203125 16.46875 C-40.697486 16.47585191 -43.31293919 16.48355096 -45.9283905 16.49182129 C-51.41005777 16.50641268 -56.89161126 16.50701589 -62.37329102 16.50097656 C-68.6923177 16.49434221 -75.01075971 16.51718049 -81.32966787 16.55429029 C-87.42725951 16.58878956 -93.52457673 16.59531584 -99.62225914 16.59120178 C-102.20775785 16.5928923 -104.7932643 16.60252813 -107.37870216 16.62034607 C-111.00008708 16.64255457 -114.62007371 16.63282157 -118.24145508 16.61523438 C-119.30305847 16.62849762 -120.36466187 16.64176086 -121.45843506 16.65542603 C-128.51247177 16.57608669 -133.18604032 15.00759418 -139 11 C-136.50907189 9.75453595 -135.58919267 10.2232422 -133 11 C-133 11.66 -133 12.32 -133 13 C-126.86065605 14.08441679 -120.87307928 14.13483477 -114.64868164 14.11352539 C-112.96465744 14.11374443 -112.96465744 14.11374443 -111.24661255 14.1139679 C-107.55110718 14.11327354 -103.85565277 14.10550347 -100.16015625 14.09765625 C-97.59183276 14.09579038 -95.02350891 14.09436727 -92.45518494 14.09336853 C-86.39573647 14.0899459 -80.3363089 14.08207154 -74.27686828 14.07201904 C-67.37478418 14.06081862 -60.47269919 14.05533757 -53.57060826 14.05032361 C-39.38039577 14.03988781 -25.19019853 14.02231291 -11 14 C-11 13.34 -11 12.68 -11 12 C-10.01 12 -9.02 12 -8 12 C-8 11.34 -8 10.68 -8 10 C-6.68 10 -5.36 10 -4 10 C-4 9.01 -4 8.02 -4 7 C-3.01 7 -2.02 7 -1 7 C-0.67 4.69 -0.34 2.38 0 0 Z " fill="#E7785E" transform="translate(244,236)"/>
<path d="M0 0 C0 2.79784711 -0.37195775 4.9790678 -1 7.6875 C-1.185625 8.49574219 -1.37125 9.30398437 -1.5625 10.13671875 C-1.7790625 11.05904297 -1.7790625 11.05904297 -2 12 C-2.66 12 -3.32 12 -4 12 C-4.33 49.62 -4.66 87.24 -5 126 C-4.34 126 -3.68 126 -3 126 C-3 127.98 -3 129.96 -3 132 C-2.34 132.33 -1.68 132.66 -1 133 C-1.99 133 -2.98 133 -4 133 C-5.56749344 129.51553071 -6.25247651 126.78702254 -6.26742554 122.9728241 C-6.27595551 121.98464188 -6.28448547 120.99645966 -6.29327393 119.97833252 C-6.29236755 118.90549011 -6.29146118 117.83264771 -6.29052734 116.72729492 C-6.29724457 115.5884938 -6.30396179 114.44969269 -6.31088257 113.27638245 C-6.32988301 109.51103351 -6.33378789 105.74586265 -6.3359375 101.98046875 C-6.34236417 99.36119005 -6.34909243 96.74191207 -6.35610962 94.12263489 C-6.36889036 88.63081708 -6.3718756 83.13904747 -6.37060547 77.6472168 C-6.36940489 71.31294598 -6.39049315 64.97901636 -6.4220928 58.64483184 C-6.45146945 52.53712331 -6.45857959 46.42957761 -6.45738602 40.32180214 C-6.45974398 37.72989827 -6.46857843 35.1379918 -6.48405075 32.54613304 C-6.50368349 28.91743179 -6.49788217 25.28960452 -6.48583984 21.66088867 C-6.49707886 20.59411896 -6.50831787 19.52734924 -6.51989746 18.42825317 C-6.45826648 11.10626339 -5.39258965 5.39258965 0 0 Z " fill="#F8DD7A" transform="translate(58,54)"/>
<path d="M0 0 C0.33 0 0.66 0 1 0 C1.00808685 1.25121643 1.01617371 2.50243286 1.02450562 3.79156494 C1.10220391 15.61969586 1.1900019 27.44771509 1.28752708 39.27569962 C1.33733782 45.35565182 1.38366863 51.43558792 1.421875 57.515625 C1.45892078 63.39013964 1.50533178 69.26451435 1.55806351 75.13890839 C1.57650539 77.37299886 1.59165042 79.6071192 1.60334396 81.84125519 C1.5824627 98.03432108 1.5824627 98.03432108 4 114 C4.99 114 5.98 114 7 114 C7 115.32 7 116.64 7 118 C8.32 118 9.64 118 11 118 C11 119.32 11 120.64 11 122 C6.94150938 120.49685533 4.26197417 117.60069358 2 114 C-0.38546316 108.46920849 -0.2700533 103.31528312 -0.22705078 97.40478516 C-0.22734283 96.35052338 -0.22763489 95.2962616 -0.22793579 94.21005249 C-0.22654596 90.73630453 -0.21100086 87.26277285 -0.1953125 83.7890625 C-0.19158114 81.37625241 -0.18873475 78.96344081 -0.18673706 76.55062866 C-0.1791103 70.20814817 -0.15946991 63.86575965 -0.1373291 57.52331543 C-0.11685013 51.04810836 -0.10773095 44.57288639 -0.09765625 38.09765625 C-0.07622321 25.39839832 -0.04248458 12.69920406 0 0 Z " fill="#FED25D" transform="translate(74,96)"/>
<path d="M0 0 C0.66 0 1.32 0 2 0 C1.25 4.75 1.25 4.75 -1 7 C-1.30055734 9.05218823 -1.30055734 9.05218823 -1.24723816 11.44535828 C-1.25143265 12.38037674 -1.25562714 13.3153952 -1.25994873 14.27874756 C-1.25432922 15.30784241 -1.24870972 16.33693726 -1.24291992 17.3972168 C-1.24481827 18.4786647 -1.24671661 19.56011261 -1.24867249 20.67433167 C-1.2523909 24.26603338 -1.24165751 27.85753485 -1.23046875 31.44921875 C-1.22927701 33.94065833 -1.22882377 36.43209836 -1.2290802 38.92353821 C-1.22751328 44.15502253 -1.2194527 49.38645501 -1.20581055 54.61791992 C-1.18840107 61.31854686 -1.1849949 68.01909707 -1.18575573 74.71974468 C-1.18548344 79.86962095 -1.17999209 85.01948079 -1.17275429 90.16935158 C-1.16957466 92.63925871 -1.16760186 95.1091677 -1.16686058 97.57907677 C-1.16468706 101.03802005 -1.1559196 104.49688431 -1.14526367 107.95581055 C-1.14571686 108.97478424 -1.14617004 109.99375793 -1.14663696 111.04360962 C-1.12375055 116.13668696 -0.87702016 120.98046143 0 126 C-2.64073629 122.96886107 -3.37563785 121.11590772 -3.38095093 117.1108551 C-3.3894104 116.12812622 -3.39786987 115.14539734 -3.40658569 114.13288879 C-3.400513 113.06108871 -3.39444031 111.98928864 -3.38818359 110.88500977 C-3.39606903 109.18442917 -3.39606903 109.18442917 -3.40411377 107.44949341 C-3.41733239 103.69665811 -3.40856813 99.94424598 -3.3984375 96.19140625 C-3.40045783 93.58593158 -3.40336892 90.98045747 -3.40713501 88.37498474 C-3.41259154 82.91164558 -3.40540455 77.44842811 -3.39111328 71.98510742 C-3.37479501 65.67413048 -3.38006949 59.36344442 -3.3965925 53.05247456 C-3.41186264 46.97625286 -3.41022597 40.90015984 -3.4014473 34.82392693 C-3.39944475 32.24072161 -3.40190645 29.65750888 -3.40888596 27.07431221 C-3.41649852 23.46413601 -3.40489762 19.85451927 -3.38818359 16.24438477 C-3.39425629 15.17460892 -3.40032898 14.10483307 -3.40658569 13.00263977 C-3.32704044 3.73542794 -3.32704044 3.73542794 0 0 Z " fill="#F58153" transform="translate(101,114)"/>
<path d="M0 0 C0.33 0 0.66 0 1 0 C1 33 1 66 1 100 C-8 99 -8 99 -12 97 C-7.57864538 95.34199202 -5.32072286 96.33490964 0 97 C0 64.99 0 32.98 0 0 Z " fill="#FDBB6C" transform="translate(97,122)"/>
<path d="M0 0 C36.63 0 73.26 0 111 0 C111 0.33 111 0.66 111 1 C109.03468323 1.01213028 109.03468323 1.01213028 107.02966309 1.02450562 C94.67050693 1.1020552 82.31145967 1.18981689 69.95244598 1.28752708 C63.59885331 1.33743164 57.24527679 1.38376235 50.89160156 1.421875 C44.75775305 1.45880135 38.62404164 1.50518155 32.49031067 1.55806351 C30.15243438 1.57656836 27.81452875 1.59169068 25.47660828 1.60334396 C22.19715392 1.62027315 18.91801088 1.64932479 15.63867188 1.68115234 C14.6762558 1.68331253 13.71383972 1.68547272 12.72225952 1.68769836 C7.15444258 1.7565392 2.34744424 2.42856071 -3 4 C-3 3.34 -3 2.68 -3 2 C-2.01 2 -1.02 2 0 2 C0 1.34 0 0.68 0 0 Z " fill="#FFB45F" transform="translate(112,101)"/>
<path d="M0 0 C6.90036815 0.55202945 11.19978402 2.77526667 15.75 7.9375 C17.76444243 10.67937998 19.13882704 12.72754274 20 16 C19.625 18.3125 19.625 18.3125 19 20 C18.67 19.01 18.34 18.02 18 17 C17.01 16.67 16.02 16.34 15 16 C13.04457812 13.01540871 13 11.73585209 13 8 C11.35 8 9.7 8 8 8 C7.67 6.35 7.34 4.7 7 3 C4.69 2.67 2.38 2.34 0 2 C0 1.34 0 0.68 0 0 Z " fill="#F39480" transform="translate(228,102)"/>
<path d="M0 0 C0.66 0 1.32 0 2 0 C2.66 3.96 3.32 7.92 4 12 C4.99 12 5.98 12 7 12 C7 13.32 7 14.64 7 16 C8.32 16 9.64 16 11 16 C11 17.32 11 18.64 11 20 C6.88584273 18.47623805 4.39584751 15.55567475 2 12 C0.19221041 7.86790951 -0.21382122 4.49024569 0 0 Z " fill="#F6D192" transform="translate(74,198)"/>
<path d="M0 0 C0.66 0.99 1.32 1.98 2 3 C0.98986048 7.79816273 -2.12405139 10.318064 -6 13 C-11.17985612 16.10791367 -11.17985612 16.10791367 -14.375 15.6875 C-14.91125 15.460625 -15.4475 15.23375 -16 15 C-14.35 14.67 -12.7 14.34 -11 14 C-11 13.34 -11 12.68 -11 12 C-10.01 12 -9.02 12 -8 12 C-8 11.34 -8 10.68 -8 10 C-6.68 10 -5.36 10 -4 10 C-4 9.01 -4 8.02 -4 7 C-3.01 7 -2.02 7 -1 7 C-0.67 4.69 -0.34 2.38 0 0 Z " fill="#F19A88" transform="translate(244,236)"/>
<path d="M0 0 C3.54720774 3.07424671 5.01442622 5.40065568 6 10 C6.153692 14.00623807 6.11670318 17.99319094 6 22 C5.34 22 4.68 22 4 22 C3.96261719 21.03578125 3.92523438 20.0715625 3.88671875 19.078125 C3.82097656 17.81484375 3.75523437 16.5515625 3.6875 15.25 C3.62949219 13.99703125 3.57148438 12.7440625 3.51171875 11.453125 C2.97909762 7.85894886 2.21275826 6.72887078 0 4 C0 2.68 0 1.36 0 0 Z " fill="#F7D8A3" transform="translate(219,80)"/>
<path d="M0 0 C6.25293959 0.26053915 10.6274905 2.43441865 15 7 C15 7.99 15 8.98 15 10 C14.2265625 9.071875 14.2265625 9.071875 13.4375 8.125 C11.06092298 5.74939444 11.06092298 5.74939444 7.5 5 C3.81238973 3.94639706 2.41346902 2.89616283 0 0 Z " fill="#F9EA99" transform="translate(182,48)"/>
<path d="M0 0 C0 2.79784711 -0.37195775 4.9790678 -1 7.6875 C-1.185625 8.49574219 -1.37125 9.30398437 -1.5625 10.13671875 C-1.7790625 11.05904297 -1.7790625 11.05904297 -2 12 C-2.66 12 -3.32 12 -4 12 C-4.33 13.98 -4.66 15.96 -5 18 C-5.33 18 -5.66 18 -6 18 C-6.45743356 11.5959301 -5.48834422 7.42348408 -2 2 C-1.34 1.34 -0.68 0.68 0 0 Z " fill="#F9E792" transform="translate(58,54)"/>
<path d="M0 0 C2.97 0.495 2.97 0.495 6 1 C6 1.66 6 2.32 6 3 C7.0725 3.12375 8.145 3.2475 9.25 3.375 C12.37863615 3.89643936 14.33480424 4.40088254 17 6 C9.92512658 6.64317031 5.90506815 4.82735898 0 1 C0 0.67 0 0.34 0 0 Z " fill="#F19C89" transform="translate(105,246)"/>
<path d="M0 0 C3.63 0 7.26 0 11 0 C11 0.99 11 1.98 11 3 C9.54077307 2.88590407 8.08259402 2.75834456 6.625 2.625 C5.40683594 2.52058594 5.40683594 2.52058594 4.1640625 2.4140625 C2 2 2 2 0 0 Z " fill="#F9E58A" transform="translate(63,195)"/>
<path d="M0 0 C-8.261959 4.40774487 -8.261959 4.40774487 -13 5 C-9.05611108 0.6179012 -5.85609696 -1.72457093 0 0 Z " fill="#F9EC9E" transform="translate(72,49)"/>
<path d="M0 0 C0.99 0.33 1.98 0.66 3 1 C0.03 5.95 0.03 5.95 -3 11 C-4 8 -4 8 -3.22265625 5.95703125 C-2.83980469 5.24933594 -2.45695312 4.54164062 -2.0625 3.8125 C-1.68222656 3.09707031 -1.30195312 2.38164063 -0.91015625 1.64453125 C-0.60980469 1.10183594 -0.30945313 0.55914062 0 0 Z " fill="#FEAF5F" transform="translate(102,108)"/>
<path d="M0 0 C0.66 0.33 1.32 0.66 2 1 C-0.97 3.64 -3.94 6.28 -7 9 C-7.66 8.67 -8.32 8.34 -9 8 C-6.14723863 5.06799526 -3.34920216 2.35684596 0 0 Z " fill="#F47743" transform="translate(111,104)"/>
<path d="M0 0 C3.2542015 2.83430453 4.5206753 4.68607774 5 9 C2.5 6.75 2.5 6.75 0 4 C0 2.68 0 1.36 0 0 Z " fill="#F5D292" transform="translate(219,80)"/>
<path d="M0 0 C0.99 0 1.98 0 3 0 C3 1.98 3 3.96 3 6 C3.66 6.33 4.32 6.66 5 7 C4.01 7 3.02 7 2 7 C1.34 4.69 0.68 2.38 0 0 Z " fill="#F9E990" transform="translate(52,180)"/>
<path d="M0 0 C0.66 0 1.32 0 2 0 C1.6875 2.375 1.6875 2.375 1 5 C0.01 5.66 -0.98 6.32 -2 7 C-1.125 1.125 -1.125 1.125 0 0 Z " fill="#F47741" transform="translate(101,114)"/>
<path d="M0 0 C0.99 0 1.98 0 3 0 C4.32 2.31 5.64 4.62 7 7 C4.13302508 5.71480435 2.02392288 4.42870746 0 2 C0 1.34 0 0.68 0 0 Z " fill="#FAECA3" transform="translate(56,188)"/>
</svg>
